<?xml version="1.0" encoding="UTF-8"?>
<svg xmlns="http://www.w3.org/2000/svg" viewBox="0 0 1024 1024"><rect width="1024" height="1024" fill="#F8FAFC"/>
  <defs>
    <linearGradient id="pbFill" x1="160" y1="140" x2="880" y2="900" gradientUnits="userSpaceOnUse">
      <stop stop-color="#14B8A6"/>
      <stop offset="0.45" stop-color="#0F766E"/>
      <stop offset="1" stop-color="#115E59"/>
    </linearGradient>
    <linearGradient id="pbSheen" x1="280" y1="200" x2="700" y2="520" gradientUnits="userSpaceOnUse">
      <stop stop-color="#FFFFFF" stop-opacity="0.22"/>
      <stop offset="1" stop-color="#FFFFFF" stop-opacity="0"/>
    </linearGradient>
  </defs>
  <!-- Safe margin: content inside ~66% adaptive zone -->
  <rect x="96" y="96" width="832" height="832" rx="208" fill="url(#pbFill)"/>
  <path d="M180 220c80-90 260-110 332-110s252 20 332 110v40c-90-70-240-90-332-90s-242 20-332 90v-40z"
        fill="url(#pbSheen)"/>
  <!-- Pocket body -->
  <path d="M292 390c0-36 28-64 64-64h312c36 0 64 28 64 64v268c0 78-64 140-144 140H436c-80 0-144-62-144-140V390z"
        fill="#CCFBF1" fill-opacity="0.22" stroke="#F0FDFA" stroke-width="20" stroke-linejoin="round"/>
  <!-- Pocket flap -->
  <path d="M292 390c40-56 120-88 220-88s180 32 220 88"
        fill="none" stroke="#F0FDFA" stroke-width="22" stroke-linecap="round"/>
  <!-- Neural brain (thicker for launcher clarity) -->
  <g fill="none" stroke="#F0FDFA" stroke-width="32" stroke-linecap="round" stroke-linejoin="round">
    <path d="M368 520c-40 18-68 62-68 112 0 88 76 152 212 152s212-64 212-152c0-50-28-94-68-112"/>
    <path d="M368 520c22-72 76-116 144-116s122 44 144 116"/>
    <path d="M428 598c40-22 120-22 160 0"/>
    <path d="M404 688c52 22 156 22 208 0"/>
  </g>
  <circle cx="404" cy="548" r="22" fill="#5EEAD4"/>
  <circle cx="620" cy="548" r="22" fill="#5EEAD4"/>
  <circle cx="512" cy="640" r="22" fill="#5EEAD4"/>
  <circle cx="512" cy="484" r="22" fill="#5EEAD4"/>
</svg>
